<svg width="300" height="500" viewBox="0 0 300 500" fill="none" xmlns="http://www.w3.org/2000/svg">
  <ellipse cx="150" cy="478" rx="70" ry="11" fill="rgba(0,0,0,0.16)"/>

  <circle cx="150" cy="192" r="80" fill="#FFFFFF" stroke="#C0623F" stroke-width="5"/>

  <!-- corner scan brackets -->
  <path d="M92 148 v-16 h16" stroke="#C0623F" stroke-width="5" stroke-linecap="round" fill="none"/>
  <path d="M208 132 h16 v16" stroke="#C0623F" stroke-width="5" stroke-linecap="round" fill="none"/>
  <path d="M92 236 v16 h16" stroke="#C0623F" stroke-width="5" stroke-linecap="round" fill="none"/>
  <path d="M208 252 h16 v-16" stroke="#C0623F" stroke-width="5" stroke-linecap="round" fill="none"/>

  <!-- face outline -->
  <rect x="116" y="152" width="68" height="80" rx="18" fill="none" stroke="#C0623F" stroke-width="5"/>
  <circle cx="136" cy="180" r="5.5" fill="#C0623F"/>
  <circle cx="164" cy="180" r="5.5" fill="#C0623F"/>
  <rect x="128" y="204" width="44" height="5" rx="2.5" fill="#C0623F" opacity="0.85"/>
  <line x1="150" y1="152" x2="150" y2="232" stroke="#C0623F" stroke-width="2" stroke-dasharray="4 6" opacity="0.5"/>

  <!-- label plaque -->
  <rect x="90" y="336" width="120" height="10" rx="5" fill="#FFFFFF" opacity="0.55"/>
  <rect x="90" y="360" width="92" height="8" rx="4" fill="#FFFFFF" opacity="0.4"/>
  <rect x="90" y="380" width="70" height="8" rx="4" fill="#FFFFFF" opacity="0.3"/>

  <rect x="90" y="410" width="66" height="24" rx="12" fill="#C0623F"/>
  <circle cx="105" cy="422" r="5" fill="#FFFFFF"/>
  <path d="M115 422 l4 4 l7 -9" stroke="#FFFFFF" stroke-width="2.4" stroke-linecap="round" stroke-linejoin="round" fill="none"/>
</svg>
