<svg width="300" height="500" viewBox="0 0 300 500" fill="none" xmlns="http://www.w3.org/2000/svg">
  <ellipse cx="150" cy="478" rx="70" ry="11" fill="rgba(0,0,0,0.16)"/>

  <circle cx="150" cy="192" r="80" fill="#FFFFFF" stroke="#3E7A5D" stroke-width="5"/>

  <!-- network graph -->
  <line x1="150" y1="160" x2="116" y2="216" stroke="#3E7A5D" stroke-width="4"/>
  <line x1="150" y1="160" x2="184" y2="216" stroke="#3E7A5D" stroke-width="4"/>
  <line x1="116" y1="216" x2="184" y2="216" stroke="#3E7A5D" stroke-width="4"/>

  <circle cx="150" cy="160" r="12" fill="#3E7A5D"/>
  <circle cx="116" cy="216" r="12" fill="#3E7A5D"/>
  <circle cx="184" cy="216" r="14" fill="#FFFFFF" stroke="#3E7A5D" stroke-width="4"/>

  <!-- alert marker on compromised node -->
  <path d="M184 196 l9 16 h-18 z" fill="#C0623F"/>
  <rect x="182.5" y="203" width="3" height="6" rx="1.5" fill="#FFFFFF"/>
  <circle cx="184" cy="211.5" r="1.6" fill="#FFFFFF"/>

  <!-- label plaque -->
  <rect x="90" y="336" width="120" height="10" rx="5" fill="#FFFFFF" opacity="0.55"/>
  <rect x="90" y="360" width="92" height="8" rx="4" fill="#FFFFFF" opacity="0.4"/>
  <rect x="90" y="380" width="70" height="8" rx="4" fill="#FFFFFF" opacity="0.3"/>

  <rect x="90" y="410" width="66" height="24" rx="12" fill="#3E7A5D"/>
  <circle cx="105" cy="422" r="5" fill="#FFFFFF"/>
  <path d="M115 422 l4 4 l7 -9" stroke="#FFFFFF" stroke-width="2.4" stroke-linecap="round" stroke-linejoin="round" fill="none"/>
</svg>
